<?xml version="1.0"?>
    
<!--********* Copyright (c) 2024 Pareto Softare, LLC DBA Simplemaps.com ***************************************
************* Free for Commercial Use, full terms at  https://simplemaps.com/resources/svg-license ************
************* Attribution is appreciated! https://simplemaps.com *******************************************-->

<svg baseprofile="tiny" fill="#6f9c76" height="947" stroke="#ffffff" stroke-linecap="round" stroke-linejoin="round" stroke-width=".5" version="1.2" viewbox="0 0 1000 947" width="1000" xmlns="http://www.w3.org/2000/svg">
 <g id="features">
  <path d="M528.6 820l-0.5-0.2-0.5 0.2-0.4 0.7-7.8 8.7-0.7 0.6-1.3 0.5-0.9 0.2-2.8 0-1.8 0.3-1.5 0.8-1.3 1.2-1.2 2-1.5 4.5 0.2 0.2 0.3 0.4 0.2 0.7-0.3 0.9-0.4 0.3-1.1 0.1-0.2 0-0.7 2.7-0.2 1.8-0.7 1.1-2.8 1.1-2.2 0.5-1-0.1-0.8-0.5-1.8-1.3-0.9-0.3-2 0.5-3.5 2.1-2.3 0.1-1.7-0.3-0.5-1.6 0.3-4.6-0.2-2-0.4-1.9-0.1-2 0.8-2.4-2.7-1.6-9-0.8 0.4-2.1 0-0.2-0.2-2.9-1.3-6-0.4-1.2-1.1-2.5-0.4-1.3-0.6-4.9-0.4-1.1-1.4-1-1.4 0.3-1.4 0.6-1.3 0.1-1.2-0.7-1.8-2.1-1.1-1-1.3-0.4-0.9 0-1.3-0.2-0.6 0-1.2-0.9-0.6-1-0.9-4.1-2.2-4.4-1.5-4.3-0.1-3.7 0.5-0.5 0-0.1 1.2-1.4 0.5-0.5 0.1-0.2 0-0.4-2.2-1.1-0.4-1.8 0.3-2.1-0.6-2.6-1.4-0.8-0.9 0.6-1.4 0.9-1.2 0.8-2.1 0-6.8-3.7-3.5-1.3-2.1 0.3 0 0.2 0 0.3-0.5 0-0.1 0-0.4 0 0 0.1-0.2 0.3-0.3 0.2-0.3 0.3-0.5 0.4-1.2 1.1-1.3 0.2-1.8-1.5-0.5-0.9-0.7-2.2-0.3-0.8-1.1-0.8-2.1-0.4-1.1-0.5-2.9-2.5-1.4-0.7-5.7-1.1-1.2-1.4 0.6-2.6-3.9-2.5-0.8-0.5-0.6-0.5-1.3-0.3 0.1-1.7 0-0.4 0-0.3 5.4-10.6 11.4-2.4 5.5-4.1 8.8-4.1 0.9-4.1 0.1-7.3-1.5-18.2 0.8-3 2-0.3 2-1 0.1-2.5-1-2.6 1.2-3.2 2.7-0.6 13.2 0.1-1.1-5.1-2.9-3.1-2.9-2.3-2.4-3.3-1.8-5.4 2.2-5.9 1.6-9 2.4-5.1 7.1-4.6 0.7-5.1-1.2-2.6-0.6-3.3 0.7-2.2 1.1-1.4 3.1-11 4.6-2.3 12.8-0.4 3-1.4 2.8-2 3.2 0.6 2.8 2.9 11.9 6.4 5.9 1.2 7.2 0 3.1-2.7 6.1 1.1 5.5 5 8.5 13.6 3 0.9 9.1-0.5 9.9 5 7.7 1.5 1.2 0.7 0.3 1.6 0 1.7-0.4 1.2-6.2 1-3.4 6.5 2.5 2.9 6.8 2 3.1 2.4 2.6 5.6 4.3 5.3-3.7 0.6-6.2 5.2-1.8 4 3.1 1.7 6.2 0.9 2.6 1 0.6 3.1 0.2 2.5-11.5 7.2-2.8 0.5-5.1-0.4-5 0.8-8 6.2-2.3 0.5-2.4 0.1-5-2.9-2.4 3.6-2.6 5.1-3.9 5.6-6.1-0.9-2.8 2.3 4.8 4.8 4.2 5.9-21.5 24.2-2 2.9-2 4.2-1 4.7 1.8 2.4 2.4 0.2 2 2.5 0.2 4.7 2.7 4.9 4.6 1.8 1.8 3.3 1.4 4.4 2.9 2.7 3.4 1.6 6.2 1.1-0.3 3.6-1.6 3.2-0.7 2.9 1.1 2.5 2.1 1.5 0.5 1.6z" id="PLSL" name="Silesian">
  </path>
  <path d="M528.6 820l-0.5-1.6-2.1-1.5-1.1-2.5 0.7-2.9 1.6-3.2 0.3-3.6-6.2-1.1-3.4-1.6-2.9-2.7-1.4-4.4-1.8-3.3-4.6-1.8-2.7-4.9-0.2-4.7-2-2.5-2.4-0.2-1.8-2.4 1-4.7 2-4.2 2-2.9 21.5-24.2-4.2-5.9-4.8-4.8 2.8-2.3 6.1 0.9 3.9-5.6 2.6-5.1 2.4-3.6 5 2.9 2.4-0.1 2.3-0.5 8-6.2 5-0.8 5.1 0.4 2.8-0.5 11.5-7.2-0.2-2.5-0.6-3.1 8.5 0 3.6 1.9 3 3.2 7.7 2.4 6.9 4.7 4.2 8.2 1.5 6.6 1.6 3.3 4.1 5.8 1.7 3.6 6.7 4 11.9 0.4 2.7-2.9 0.4-1.5 1.1-1.8 2.9-1.4 1.3-1.3 0.3-0.7 0.1-1.5 0.3-0.7 0.4-0.3 0.8 0 0.3-0.2 1.9-1.9 0.6-2.5 0.5-0.8 3.5 3.3 1.5-0.7 1.2-1.3 1.2-0.8 1.4 0.9 1.3-0.8 2.5-0.2 0.8-0.5 0.9-1.2 0.8-0.7 0.9-0.3 6.7-0.2 1.4-0.4 1-0.9 0.9-0.9 0.8-0.8 3.8-1.8 0.9-0.2 1.3 0.6 0.8 1 0.9 0.8 1.6-0.4 0-0.2 1.6-2.2 0.6-0.5 0.5 0 0.3-0.3 0.2-1.2 0.4-0.8 1.1-0.5 1.1-1 0.5-2 0.8 0.7 0.6 0.1 1-0.8 0.1-0.4-0.1-0.7 0-0.6 0.3-0.3 1.3 0.1-1 11.9-2.7 6.8-3.4 5.8-0.6 8 2.5 21.3-0.8 6.3-0.1 5.4 0.9 1.7 0.7 1.9 1.9 2.3 2.6 0.2 3.4 1.8 1.2 4.1-9 6.9-1.6 3.5 2.7 2.5 9.8 4.2 5.4 5.9 3.2 9.8 0.3 4.9-0.5 4.9 1.6 10.2 3.3 9.3 0.1 0.3 0 0.1-1.6 0.7-1.4-0.4-3.3 0.7-1.5 0-8.9-2.5-5.1-2.7-1.2-0.3-1.6 1.1-2.9 4.2-1.5 1.5-2 0.3-1.4-0.9-1.3-1.5-1.6-1.1-1.4-0.1-3.7 0.7-1.4 0.7-1.8 2 1.1 1.3 2.1 1.3 1.1 2.1-0.8 1.3-1.6 0.3-2 0-1.4 0.3-1.8 1.8-3 4.4-2 1.7-2.1 0.8-1.7-0.3-1.4-1.1-1.5-1.6-1.7-1.2-1.4-0.2-1.6 0-2-0.3-1.5-1-8-9.7-1.4-0.2-3.5 0.5-1.9-0.3-0.9 0.1-0.9 0.5-1.4 1.8-1.1 1-2.1 0.8-2-0.5-7.7-4-1.4 0.4 0 2.4-4.7 0.1-3.7-1.4-1.1 0.1-0.9 0.7-0.3 0.8-0.2 1.3-0.5 2-0.6 1.9-0.5 0.6-7 0.7-1.4 0.7-1.9 2.4-0.9 0.8-2-0.2-0.3-0.2-0.5 0.7-1.7 3.9-0.5 1.6-0.6 1.6-1.2 1.3-0.5 4.9-0.9 3.5-1.8 1.3-3-1.4-4.7-4.5-2.5-1.3-2.9 0.4-1.7 1.2-1.7 1.8-1.3 1.3-2 0.8-4.2-0.3-2.3-0.9-1.2-1.6 0.4-1.8 3.4-5.6 0.4-0.4 0.6-0.1 0.5-0.3 0.3-0.8-0.2-0.6 0-0.1-0.7-0.7-0.1 0-0.1-0.4-1.3-0.9-0.3-0.5 0.1-0.5 0.7-1.1 0.1-0.6-0.5-6.7-0.5-2.3-0.8-2.6 0-0.1-0.9-0.6-3 1.2-1.8 0.2-2-0.2-5.2-1.8 0.2-1.6-0.1-2.2 0.2-0.8 0.4-0.9-3.6 0-1.9-0.5-1.6-1.2-0.5-1-1.4-4.5-1.7-7-1.1-2.8-2.1-1.4-0.7-0.8-1.5-2.7-0.8-0.3z" id="PLMA" name="Lesser Poland">
  </path>
  <path d="M716 845.6l0-0.1-0.1-0.3-3.3-9.3-1.6-10.2 0.5-4.9-0.3-4.9-3.2-9.8-5.4-5.9-9.8-4.2-2.7-2.5 1.6-3.5 9-6.9-1.2-4.1-3.4-1.8-2.6-0.2-1.9-2.3-0.7-1.9-0.9-1.7 0.1-5.4 0.8-6.3-2.5-21.3 0.6-8 3.4-5.8 2.7-6.8 1-11.9 0.4-0.1 5.5-4.9 1.7 0.8 2.3-0.5 2.4-1.4 1.7-1.8-0.9-2.3-0.4-0.6 8.7-3.9 5.8-1.5 1.7-1.4 2.8-3.4 1.1-2.2 0.5-2.8 0.6-2.2 4.3-5.1 2.6-4.4 1.6-1.1 2.4-0.4 1.6-0.9 1.4-2.1 1.1-2.6 0.6-2.2 0.8-5.7-0.2-5.3-0.2-1.9 11.9 8.1 6.8 0.4 6-4.2 3.6-0.2 3.5 1.3 3.2 2 2.9 2.6-1.3 3.6-4.1 7.8 1.7 3 21.1 5.4 14.3 7.7 0.9 1.3-0.1 1.9 0.2 2 2.1 4 1.1 3.5-2.5 1.4-2.8-0.3-2.9 0.9-2.2 3-1.5 3 0.6 3.5 2.4 3.6 3.2 1.5 12.6-2.5 2.4 1.7-1.4 0.8-3.1 0.8 0.9 2.1 12.4 3.5 20.4 0.7 6.9-1.5 5.9-4.7 7.4-8.5 2.4-1.1 5.2-0.5 6.7 0.8 5.7 3.6 2.9 4.4 9.1 5.4 0.1 0-0.1 0.2 0 0.1-0.2 0.1-0.7 0.2-0.6 0.3-0.2 0-0.1 0.5-0.2 0.6-0.2 0.6-0.1 0.1-0.1 0.4 0 0.1-0.1 0-0.6 0.3-0.4 0.1-0.3 0.2-0.3 0.1-0.1 0-0.2 0.4-0.2 0.3-0.1 0.2-0.1 0.2-0.1 0.1-0.1 0.2-0.4 0.8-0.2 0.2-0.1 0.2-0.6 1-0.1 0.1-1.4 1.6-0.2 0.1-1 0.6 0 0.1-0.3 0.2-0.2 0.2-0.4 0.2-0.2 0.2-0.8 0.6-0.6 0.4 0 0.1-0.1 0-0.1 0.1-0.1 0.1-0.3 0.2-0.2 0.2-0.1 0.1-0.4 0.4-0.1 0-0.2 0.2-0.3 0.3-0.3 0.2-0.1 0.1-0.1 0-0.4 0.2-0.3 0.2-0.5 0.3-0.1 0-0.2 0.2-0.3 0.1-0.7 0.4-0.4 0.2-0.1 0.1-0.1 0-0.5 0.6-0.9 1.2-0.3 0.3-0.1 0.2-0.3 0.4-1 0.8-2.8 3.1-0.3 0.1-0.5 0.4-0.2 0.2-0.5 0.4-0.6 0.4-0.2 0.2-0.1 0.1-0.2 0.2 0 0.1-0.7 0.6-0.2 0.2-0.1 0.2-0.2 0.2-0.2 0.3-0.2 0.2-0.6 0.6-0.3 0.2-0.2 0.3-0.1 0.1-0.4 0.4-0.3 0.4-0.4 0.4-0.4 0.5-0.2 0.3-0.4 0.4-0.2 0.2-0.3 0.4-0.1 0.2-0.2 0.2-0.5 0.1 0 0.1-0.4 0.2-0.5 0.3-0.1 0.2-0.1 0.4-0.1 0.1-0.7 0.3-0.1 0.1-0.2 0-0.1 0-0.3-0.2-0.1 0.1 0.1 0.3 0 0.4 0 0.3 0 0.3 0 0.4 0 0.2-0.2 0.1-0.3 0.3-0.4 0.3-0.3 0.3-0.2 0.1-0.2 0.3-0.3 0.4-0.3 0.5-0.2 0.4-0.3 0.4-0.3 0.5-0.2 0.2-0.8 0.9-0.2 0.1-0.6 0.3-0.7 0.3-0.3 0.1-0.1 0.8 0 0.5-0.6 0.6-2.7 4.3-3.4 2.6-3.6 4-9.8 14.4-3.8 4-0.5 1.1-0.7 2.8-0.3 0.7-0.2 0.1-0.3 0.4-0.4 0.5-0.1 0.2-1.5 0.5-0.8 0.6-0.9 1-5.6 10.2-0.3 0.3-0.1 0.1-0.1 0-0.6 0.1-0.6 0.1-0.2 0-0.1 0.1-0.8 1.1-0.2 0.3-1.5 0.3-1 0.9-0.6 1.2-1.6 4.4-6.9 9.3-2.2 5.2-0.1 0 0 0.1 0.1 0.1 0.1 0.2 0.1 0.2 0.1 0.4 0 0.1 0.1 0.3 0.2 0.6 0 0.2 0.1 0.3 0.2 0.6 0.1 0.1 0.7 2 0.6 2.1 0.6 5.9 0.3 1.6 0.2 0.8 1.2 1.8 2 2.1 0.5 1.1 0.4 2.2 1.2 12.7-0.3 2.1-1 2.6-0.2 0.1-0.2 0.3-0.2 0.5 0 0.3-0.1 0.4-0.1 0.5 0.1 0.1-1.1 4.3-1.5 3-0.5 1.7 0.6 0.7 0.4-0.2 1.2-1.6 1.4 1.1-0.1 0-0.3 0.1 2.9 2.1 2.7 3.5 1.7 1.2 4 2.3 1.1 1.4 0 1.2-0.8 2.7-0.1 1.9 0.4 1.3 1.5 2.5 0.1 0.3 0.1 0.5-0.5 1-0.5 1.2-1.8-0.8-2.1-1.8-1.6-0.9-1-0.3-1.7-2.4-0.8-0.7-0.1-0.1-0.6-0.1-0.3-0.1-0.1 0 0 0.1-2 0.6-2.9-0.3-0.4 0-1.1 0.1-0.8 0.1-2-0.2-2.2-1.6-3.4-3.7-1.4-0.5-0.4-0.1-1.9 1.8-3.2-1.5-7.1-0.3-3.3-1-4.6-4.7-1.9-0.7-5.1 0.2-4.2-1.4-0.7-0.5-0.2-0.9 0.3-0.9-0.1-1-1-1.1-0.7-0.1-2.2 0.2-0.9 0-1-0.5-3-1.9-6.4-1.2-2.6-1.9-0.6-4.4-1.1-4.9-2.6-4.3-3.3-3.1-4.9-2.4-3.3-3.1-1.7-0.9-1.8 0.3-1.6 1.4-1.3 1.6-0.9 0.6-1.4-1.1-3.1-4.7-1.5-1.6-0.9-0.3-1.4 0.3-0.7 0-0.9-0.7-1.7-1.6-0.9-0.7-1.7-0.4-6.5 0.7-1.4 0.6z" id="PLPK" name="Subcarpathian">
  </path>
  <path d="M120.5 563.7l1.7-1 14.5-7.5 2.6-0.1 5.3 4.6 2.7 0.3 4.6-8 3-3.6 6.6-2.3 12.8 7 6.4-1.6 10.1-13.3 8.9-17.4 1.9-1.5 3.2-1 2.8-2.8 1.3-3.8 1.8-2.5 13.7 2.6 2.5 2.6 0.3 5.1 5 6.4 7.2-1.6 5.5-4.8 4.5-7.2 7.9-1.6 3.7 1 10.2 5.6 1.6 3.7 0.3 4.7 3.9 7 8.8 4.9 5 5.5 10.4 3.7 18.8-3.3 3.4-7.8 3.8-0.8 10.7 0.1 10 2.7 9 5.9-0.9 4.2-1.2 3.6-2.2 1.4-1.3 3.1 0.5 6.3 2.2 5.4 5.3 1.2 5.6-1.1 3.4 1 3.3 2.6-2.6 6.1 1.1 14.9 1.2 7.2-3.1 1.8-3.1 0.8-3.1-0.2-3 1-2.3 2.5-5.3 12.2-1 3.5-0.6 3.8-1.4 4.3-2.9 2-4.3 5.6-3.3 7.5-7.5 11.2-6.5 12.5-2.1 8-3.3 5.6-5.5 0.9-4.7 3.7-6.6 16.3-0.4 1.7-2.5-1.5-2.1-0.3-1.8 1.2-0.7 0.3 0 1.6 0 0.4 0.6 0.8 0.2 0.3 0.2 0.3 2 2.9 1 2.6 0.7 3.1 0.8 2.7 1.7 1.8 2.3 1.3 1.6 1.8 1 2.5 0.1 3.5 1.2 1.5 0.1 1.4 0.1 0.5-0.6 1.2-1.1-0.4-0.4-0.6-0.4-0.6-0.2-0.2-0.1-0.3-0.3-0.6-0.6-0.4-1.3 0-0.2 0.4 0 1.7-0.2 0.5-0.9 0.1-1.6-0.6-0.8 0-1.1 0.8-1.5 2.1-0.9 0.7-1 0.3-0.7 0.2-0.4 0.1-1.8-0.2-1.8 0.3-1.8 1.5-0.2 0.2-0.1 0.1-0.3 0.4-1.3 2-1 2-0.5 0.7-0.1 0.2-0.4 0.5-0.1 0.1-2 1.5-0.3 0.4-0.3 0.4-1.7 2.3-0.1 0.1-0.3 0.5-0.1 0.1-3.7 0.3-3.8-2-3.1-2.9-1.6-2.1-0.6-1.2-0.3-0.6-1-4.8-1-2.7-2.7-2.8-1.2-2.1-1.3-1.8-2.3-4.2-1.3-1.9-2-1.4-4.1-1.5-1.6-2.1-0.2-1.3 0.1-1.3-0.1-1.3-0.6-1.3-0.9-0.3-4.1 0-0.3 0.1-0.5 0.2-0.3 0.1-0.6 0.5-0.7 0.2-1.2-1-0.4-0.8-1.2-3.6-2.9-0.6-0.9-2.5 0.6-1.8 0-0.4-0.1-0.3 0-0.3 0.2 0 0.5-0.1-0.1-0.4 0-0.2 0.7 0 0.2-0.1-0.1-0.3 0.6 0 0.5-0.4 0.3-0.2 0.5-0.2 1.4-1.1 1.6-1 1.4-1.2 0.2-0.4 0.5-1.4 1.4-0.5 0.7 0.2 2.2 0.6 1.6-0.3 0.6-0.9 0.1-0.1 0.1-0.2 0.4-0.4 0.1 0 1.4-1.4 0.8-1.1-0.3 0 0-0.2 0-0.6 0.1-1.1 0.2-0.7 0.4-0.8 0.2-0.4 0-0.5-0.3-1.1 0.9-0.4 1.9-0.8 0-0.2-0.8-2.5-7.7-8.2-2.8-1.6-3-0.7-3.3-0.1-0.4 0.1-0.7 0.1-0.7 1.5-0.7 1.8-0.3 0.4-0.5 0.7-0.3 0.3-1.5 0.3-1.4-0.6-2.8-2.2-3.9-0.4-1.8 1.8-0.2 0.2-0.4 0.4-3.1 3-0.1 0.1-3.9 0.7-0.1-0.5-0.1-0.4 0.1-0.5 0.1-0.4 0.8-0.6 0.1-0.2 0.4-0.3 0.1-0.2 0.2-1.5-0.2-0.6-0.3-1.4-0.8-1.9-1.2-2.3-1.2-1.1-1.5-0.3-1.9 0.8-0.7 0.2-1.8 0.7-0.3 0.1-0.7 0.3-0.3 0-0.6 0-1.6 0-0.6-0.2-4.6-7.8-0.3-0.9-0.2-0.9-1.6-0.2-0.6-0.1-0.1 0.1-2.6 0.6-1.2 0.3-3.7 0.9-0.9-0.3-0.7-0.7-1.2-1.8-1-0.7-9.6-3.4-1.3-0.4-0.3-0.1-0.4-0.2-2.1-0.7-0.6-0.2-0.6-0.2-3.3-1.2-1.9 0.2-1.8 0.1-0.9 1.1-0.9 1.5-0.1 0.1-0.9 1-0.1-0.1-1.1-0.3-0.6-1.2 0-1.4 0.3-1.4 0-1.4-1.1-2.7-1.4-1.2-1.6-0.7-1.8-1.4-1-1.6-1.1-2.4-0.8-2.5-0.3-2.1 0.6-2.6 0.8-1.5 0.1-1.4-1.4-2.4-2.4-1.2-5.2-0.1-0.9-2.1-0.4-2.2-1.1-0.5-0.2 0.2-0.6 0.4-0.3 0.2-0.8 1.9-0.3 1.5-1.1 0.2-1.2-0.6-1.1-1.1-0.8-1.4-4.6-1-1.2-1.2-0.3 0 0 0.7-0.4 0 0 0.1-0.5 0.6-1.3 1-0.3 0.1-0.2 0-0.5 0.3-0.5 0.3-0.4 0.5 0.4 1.7 1.5 1.1 1.3 2 0.1 4.1 0 0.1-0.2 0.8-0.6 0.6-0.3 0.4-0.3 0.5-0.1 0.8 0.1 0.5 0.1 0.4 0.1 4.4 0 0.6-0.2 1.3-10.3-0.8-3.3 0.9-1.2 0-0.8-0.1 0.1-2.6 1.2-2.2 3.3-3.6 4.5-10.9 4.1-10.3 0.3-1.6 0-2.8 0.1-1.4 0.5-1 0.7-0.7 0.6-1 0.2-1.8 0.1-3.7 0.8-4 1.2-3.9 1.5-3.1-0.3-0.4-0.4-0.4 0.5-4.2-1.3-2.9-2.1-2.4-1.6-2.9-0.3-1-0.4-2.7 0-0.1-0.5-6.2z" id="PLDS" name="Lower Silesian">
  </path>
  <path d="M456.6 621.9l-3.1 11-1.1 1.4-0.7 2.2 0.6 3.3 1.2 2.6-0.7 5.1-7.1 4.6-2.4 5.1-1.6 9-2.2 5.9 1.8 5.4 2.4 3.3 2.9 2.3 2.9 3.1 1.1 5.1-13.2-0.1-2.7 0.6-1.2 3.2 1 2.6-0.1 2.5-2 1-2 0.3-0.8 3 1.5 18.2-0.1 7.3-0.9 4.1-8.8 4.1-5.5 4.1-11.4 2.4-5.4 10.6 0 0.3 0 0.4-0.1 1.7-1.1-0.3-0.4-0.1 0.4 3.2 0.5 0.2 0.7-0.2 0.8 0 0.6 1 0.1 1.4-0.4 0.6-0.2 0.1-2.8 0.8-3.6 0.1-0.6 0.2-1.1 0.2-2.3 2.2-0.3 0.2-3.3 1-3.3-0.7-5.9-5.8-1-1.4-0.7-1.7-0.5-1.8-0.7-1.5-1-1.2-0.8-0.9-0.3-0.8 0.3-0.8 0.8-0.7 0.1-0.1 0-0.1 0-0.1-0.1-0.2-1.2-0.3-2.5-1.2-1.2-0.3-1 0.2-0.7 0.5-1 0.1-1.4-0.6-4.4-5.6-0.2-1 0.7-1.5 0.4-0.2 0.6-0.3 0.9 0 3.5-0.1 2.4-1 1.3-0.8 1.6-0.9 1-0.6 1.3-1.2 0.5-0.4 0.8-2.1-1.4-2.7-0.9-0.9-0.2-1.5 0.1-1.3 1-2.6 0.2-0.5 0.1-0.4 0-0.4-0.3-0.3-1.6-2.2-0.5-0.5-1.6-0.6-0.4 0.2-0.2 0.2-0.2 1-0.5 1.1-1.4 2-0.1 0-0.4 0.6-0.2 0.3-0.3 0.4-0.3 0.4-1.6 1.3-2.1 0.6-7-1.3-0.1 0-1-0.2-4.1 0.4-0.2 0-1.6 2-1.1 1.3-0.4 0.3-0.5 0.1-0.5-0.1-0.5-0.3-0.3-1.1-0.5-1.6-2-1.6-2 0.2-0.5 1.2-0.2 0.7-0.3 0.7-1.2-0.9-0.6-1.5-0.2-1.8 0.1-1.8-0.4-0.4-0.4-0.4-0.3-0.5-0.2-0.5 1.2-0.5-0.3 0 0-0.5-1.1-0.5-4.3 0.1-2.2-0.6-3.2-2-0.8-1-0.6-1.2-0.6-1.9 0-0.2-0.3-1.3 0.2-0.4-1-0.3-2.8 0.5-1.2 0-1.2-0.6-2.1-1.8-1-0.6-9.3-2.6-2.1 0.2-1.4-0.8 0.4-1.7 6.6-16.3 4.7-3.7 5.5-0.9 3.3-5.6 2.1-8 6.5-12.5 7.5-11.2 3.3-7.5 4.3-5.6 2.9-2 1.4-4.3 0.6-3.8 1-3.5 5.3-12.2 2.3-2.5 3-1 3.1 0.2 3.1-0.8 3.1-1.8 3.1-0.2 3 1.6 1.2 3.1 0.5 3.5 4.8 3.9 5.8 0.3 10.7-4 10.4-6.2 2 3.7 2.7 2.1 20.3 5.3 6.4-0.2 1.2-1 0.8-1.5 1.1-0.7 2.4 3 2.1 4.1 6.8 5.6z" id="PLOP" name="Opole">
  </path>
  <path d="M866.8 433.2l-0.7 0.6-1.6 0-2.9-1.7-1.7-0.5-1.2 0.6-1.4 0.9-1.4 0.5-1.5-0.9 0.2-0.7 0.5-1.6 0.4-0.8-2.5-3.1-1.7-1-1.9 1.1-0.8-3.4-2.1-2-2.7-0.9-7.1 1-14.1-2.9-4.8 0.2-2.2-0.5-1.1-1.8-1.5 0.7-1.9-1.4-1.5-2.2-0.6-1.6 0.5-4.9-0.2-0.7-1.3-0.2-0.7-0.7-0.5-1.3-0.3-1.9 0.1-1.3 0.4-1.2 0.3-1.2-0.2-1.5-0.7-0.9-2-1.7-1.9-2.6-5-5.4 0.2-3.3-0.2-5.5-1.1-5.3-0.6-7.8-1.4-7.1-5.3 1.5-5.1 2.6-2.8-2-2.3-3.2 1.4-8.3-4.4-3.3-4.5 4.9-6.9 1-6.4-3.4-2.4-4.4-1.3-5.5-1.3-3.7-2.2-2.3-3.5-1.9-2.3-4.2-0.4-3.8 1.5-2.7-4.2-3.3-5-0.7-4.8-2.6-3.3-6.5-5.1-12.7-2.3-17.5-1.4-5.9-2.1-5-1.2-5.3 6.6-2.9 13 0.8 5.7-2 2.6-2.1 2.9-1.3 6.8-1 15.7-10.7 8.8-10 25.2-15.8 5.3-5.5 3.1-8.9 3.7-7.1 0.3-7.2-9.6-13.5-4.6-4.5-1-4.3-0.5-4.6-9.1-12.3 8.5-12.2 20.3-2.8 6-4.1 5.2-5.5 2.2-7.5-0.2-1.2 0.1-0.2 2.3-1.1 1.9 0.3 5.5 2.8 0.9 0.1 2.1-0.4 0.9 0.2 1 1 0.5 1.2 0.4 1.2 0.6 1 1 0.7 3.1 0.4 0.6 0.8-0.3 1.5-0.6 1.8 0 1.6 1.7 2.3 2 0 2.2-0.9 1.8-0.4 1.7 0.8 5.6 4.7 3.5 2.1 7.3 2.8 1.8 1.6 1.7 1.4 0.9 1.4 1.6 3.1 0.8 1.2 1 0.7 1.9 0.5 0.9 0.5 1.5 2.2 1.2 3.1 1 3.5 0.7 3.3 1.3 7.2 0.1 3.5-1.4 2.4-1.1 0.9-0.5 0.6-0.4 0.7-0.1 1.6 0.4 1.4 0.8 1.2 0.9 0.8 0.6 0.6 0.2 0.8 0 0.9-0.4 0.9 0.1 4.5 0.9 3.7 1.2 3.6 1 3.9 0.8 8.1 1 3.2 2.2 3.2 0.2 9.5 2.1 10.6 7.7 23.8 4.3 8.9 1.8 4.8 3.7 14.4 1.6 4.3 1.6 2.2 0.9 2.1 0.7 2.2 1.1 2.4 1.6 1.8 1.6 1.2 0.9 1.8-0.2 3.7-0.8 2.1-1.1 1.9-0.9 2-0.1 3 0.8 2.6 2.7 3.5 1.1 2.2 0.1 1.2-0.2 1.8 0 1 0.8 4.2 0 1.2-0.3 0.9-1 2-0.2 1.2 0.1 1.6 0.3 0.9 0.3 0.8 0.3 1.1 0.7 18.2 0.2 4.5-1.2 6.4-3.6 4.5-12.1 8.3-15.1 4.3-8.1 4.7-8 6.7-11 17-3.7 4.5-1.6 2.6-4.2 8.6 0.2 0.1 0.7 0.5z" id="PLPD" name="Podlachian">
  </path>
  <path d="M833.7 112.9l0.2 1.2-2.2 7.5-5.2 5.5-6 4.1-20.3 2.8-8.5 12.2 9.1 12.3 0.5 4.6 1 4.3 4.6 4.5 9.6 13.5-0.3 7.2-3.7 7.1-3.1 8.9-5.3 5.5-25.2 15.8-8.8 10-15.7 10.7-6.8 1-2.9 1.3-2.6 2.1-5.7 2-13-0.8-6.6 2.9-11 0.9-2.2 1.2-2.6 5.2-3.7 2.6-4.1 0.6-8.1-0.7-6.9 8.2-8.1 2.6-8.7 0-6.6 3.8-5.8 1.2-6.5-0.1-3.3 2.7-3 3.6-12.7 7.3-3.3 1-3.5-0.3-2.8 2.2-1.5 5.1-2.4 2.7-2.7 1.4-6.9 1.3-28.6-4.5-0.8-0.9-0.6-1.4-1.4-0.9-1.6-0.4-3.6 1.2-2.3 4.6-2.6 2.2-3.2 0.8-1.3-13.8-4.7-11.9-5.1-3.6-10.3-2.7-9.7-5.9-7-2.3-1.7 0-2.1-0.9-1.4-2.1-2.8-5.2-2.2-6.6-7.9-15.3 13.4-25 3.2-3.5 3.8-2.4 7.4 0.5 5.1-2.3 0.2-2.5 1-1.7 1.5-4.4 1.6-1.6 1.1-2.1 0-2.6 0.4-2.4-4.6-1.3-8.9 0.8-3.3-1.6 1.8-6.1-2.4-3.2-4.6-0.6-4.4-2.6-3-5.1-1.7-6.6-0.2-3 1.4-2.2 4-4 1.4-2.5 1-2.9-0.9-3.8-1.9-3.3-2-6 0.6-5.3 2.2-2.5 8.1 1 2.1-0.2 0 1.1-0.8 0.8-0.7 1.4-0.3 1.9-0.1 2.3 1.2-1.2 1.6-4.3 0.7-0.9 0.5-0.6 2.3-3.7 2.3-2.2 1.2-0.7 1.1-0.3 7.1-4.5 1.5-0.6 3.6-0.5 5.8-4.3 1.3-0.5 1.3-0.2 0.8-0.9 0.4-1.7 0.7-1.5 1.5-0.3-0.2-0.7-0.2-1.7-0.2-0.7 1 0.1 0.4-0.2 18.7 1 35.2 1.9 26.2 1.4 26.2 1.4 32.4 1.7 39.4 2.1 25.2 1.4 25.2 1.3 21.2 1.1 17.1 0.9 6.2-2 1.7-1.4 2.3-4.3z" id="PLWN" name="Warmian-Masurian">
  </path>
  <path d="M120.5 563.7l-0.4-3.8 0.8-1.8-0.9-2-1.7-1.8-1.4-1.1-2.1-1-4.2-1.2-2.1-1.2-1.9-1.4-6-2-2-2.1-0.3-1.6-0.2-1 0.8-2.8 1.7-2.9 1.1-2.9-0.1-3.8-0.9-3.7-1.2-2.6-4.4-3.6-2.1-2.4-0.9-3.8-0.3-3.8-1.3-1.7-1.6-1.2-1.5-2.3-0.3-3.1 1.2-2.5 5.2-5.3 1.7-2.3 1.4-2.6 0.7-2.9 0.3-9 0.5-1.4 2-3.6 0.4-1.4 0.1-1.3 0.3-1.4 0.7-1.2 1.7-2.1-5.9-4.4-0.9-2.2 0.5-3.8 1-2.7 0.4-2.1-1.3-2.1 0-0.9 1.7-2.3 0.1-3.1-1.5-2.6-2.5-1.1-2.6-0.6-3.1-1.6-2-2.3 0.6-2.7-1.9-4.3-2.2-6.5-0.5-5.9 4.7-4.1 2.2-3.5 1.5-3.5-0.4-1.6-1.7-1.6 0.7-3.4 2.5-5.4-2.8-2.3-0.5-0.6 2.2-8 2-3 7.7-1.2 4.6-1.9 7.1-10.1 5.8-12.7 8.8-4.9 15.1 5 4.8-0.6 5.6-6.5 3.4-6.6-2.5-0.4-1.7-2.5 5.1-0.2 15.4-5.3 18.7 0 4.5-3.3 8.2-10.5 4.7-3.8 5-0.6 4.5 1 2.4 7.4-1.6 7.1-1.8 8.7 0.3 9.6-8.9 11.4 2.8 2.6 2 7.4-0.9 2.3-1.7 1.2-8.6 2.7-1.4-0.2-0.6 1.4-0.1 3.4-0.4 3.2 0.3 8.3 3.2 8.8 1.1 5.2 0.7 5.5 0 4.4-2.4 0-1.9 1.4 3.8 6.8 1.8 4.4 0.2 9.2-2.9 8.7-0.5 2.1-0.2 2.3-1 4.4-0.1 4.9 0.7 4.7 2.1 3.2 2.5 2.5 5 2.7 1.6 4.6 2.1 3.8 3.3 3.3 3.3 0 1.6-0.6 1.5 0.9 0.1 3-0.8 2.8-0.4 5.1 1.3 3.9 3.9 2.7 4.2 1.3 6.6-4.5 5.9 6.5 2.9 11-4.5 7.2-5.5 4.8-7.2 1.6-5-6.4-0.3-5.1-2.5-2.6-13.7-2.6-1.8 2.5-1.3 3.8-2.8 2.8-3.2 1-1.9 1.5-8.9 17.4-10.1 13.3-6.4 1.6-12.8-7-6.6 2.3-3 3.6-4.6 8-2.7-0.3-5.3-4.6-2.6 0.1-14.5 7.5-1.7 1z" id="PLLB" name="Lubusz">
  </path>
  <path d="M219.2 325.3l1.6-7.1-2.4-7.4-4.5-1-5 0.6-4.7 3.8-8.2 10.5-4.5 3.3-18.7 0-15.4 5.3-5.1 0.2 1.7 2.5 2.5 0.4-3.4 6.6-5.6 6.5-4.8 0.6-15.1-5-8.8 4.9-5.8 12.7-7.1 10.1-4.6 1.9-7.7 1.2-2 3-2.2 8-5.3-5.9-5.4-2.2-2.6-3.6-1.8-0.8-0.9-0.9-3.1-6.1-1.4-1.7-9.7-7.1-2.4-1.4-3-3.5-1.8-0.8-2-0.1-1.9-0.6-1.6-1.3-1-2.1 2.4-2.1 0.9-1.8 0.4-2.8-0.2-1.9-1.1-5.4-0.6-1.5 0-0.9 4.4-3.3 5.5-2.9 5.4-4.3 2.8-2.9 1.2-2.7 0.2-1.3 2.8-8.5-0.2-2.2-0.6-2.2-0.3-2.4 0.2-2 0.7-1.9 0.9-1.3 1-0.6 0.6-1 2.4-4.6-1.2-1.1-0.4-0.9-1.3-1.2-0.6-0.9-0.3-1.5 0-2.8-0.2-1.3-0.6-2.8-1.9-8.9-0.9-7.9-1.9-3.2-1-3.2-2.2-3.4-0.6-3.1-0.1-3.4 0.2-5.6-0.1-1.5-1.9-5.9-1.4-3 0.4-2.4-0.1-4.3 0-0.1 0.8-0.1 1.7-0.7 1.2-1.1 0.1-1.2-1.6-1.1 0.9-0.6 0.3-0.5-0.3-0.5-0.9-0.5 0.5-1.2 0.9 0.8 1.3 0.7 1.1 0.8 1 3 1.3 1 2.5 1.1 1.8 2 1 0.8 4 0.7 4.9 1.8 1.7 1.3 1.4 2 3 5.7 1 1.4 0.5-0.4 0.1-2.5 0.4-1.4 0.8-1 1.2-0.9-0.1-0.6 0-0.6 0.1-0.9-1-0.3-2.3-0.2-1-0.6-2.8-6.8 0.5-3.4 2.3-6.6 1 0.9 0.9-0.3 1-0.5 1.4-0.1-0.6-3.9 0.3-3.1 0.6-2.7 0.3-2.9-0.6 0-0.2 1.8-0.7 1.2-2.2 2.2 0.6 1.1-0.8-0.3-0.7-0.5-0.5-0.5-0.5-0.8 0.5-0.5 0.8-1.1 0.6-0.5-1.2-2.6-2.2-1.3-10.1-1-1.4-1.6 1.2-3-0.3-0.3-0.1 0 0-0.2-0.2-0.5-0.9 1.5-0.7 0.2-0.8-0.4-1.1-0.3-0.7 0.3-0.7 0.8-0.6 1-0.7 1 2.7 0.5 1.4 0.7 0.8 1-0.2 1.9-0.9 1.3-1.2 0.5-0.8-0.6-2.5 1.6-1.2 0.4-1.3 0.1 0 1.1 1.2 0.5 0 0.3-1.2 0.2-0.9-0.1-1.4-0.7-1.1-0.2-1.5-1-4.3-6.4-2.2-0.9-0.2 0-0.7-2.4-1.6-2 0.9-0.2 0.7-0.6 1.6-4.1 1.5 0.7 1 0.8 2.7 1.1 9 0.7 3.6-0.7 3.5-1.9 6.6-4.8 24-10.7 20.7-5.5 25.2-10.7 16.4-4.4 17.9-4.8 17.6-8 14.6-1.8 10-3.4-1.1 1.1-4.5 2.1 1.9 1.4 8-1.4 0-1-0.6 0 0-1.1 4.3 0 0-0.8-0.1-0.1-0.2 0-0.3-0.2 0.2-2.5-2.1-0.1-4.9 1.5 3.1-1.5 3.8-2.5 5.6-6.6-1.2 2.3-2 2.2-0.8 1.1 0.8-0.3 1.7-0.3 1.4-0.6 1.3-1.5 3.2-1.5 1.1-1.4-1-2.3-1.8 0-0.8 1-1.4 1.3 3.9-6.7 10.5-13.5 0 0.9-0.5 1.6 0.9 0.4 1.5-0.6 1.1-1.4 0.6-2.1-0.5-0.6-1.2 0.5-1.3 1.3 1.8-3.8 3.2-3.1 6.2-3.9 18.9-2.8 0.6-0.2 0.2 0.3 6.3 12.8 7.5 10.8 2.8 5.7 0.7 7.5-1 4.2-2.4 2.4-0.7 2.8 1 2.3 1.7 2.4 0.4 3.8-1.5 2.2-12.6 3.2 5.8 17.6 0.7 8.5 0 8.5 3.9 2.8 2.2 2.6 3.4 7 2.5 2.3 2.1 3 1.7 3.6-5-0.6-4.5 2.1 0.1 3 1.8 0.9 1.6 2.6 1 3.3-2.7 4.8-3.8 3.9 1.6 16.6-3.4-1.1-3.5 0.1-3.2 1.4-2.4 4.2-1.8 5-2.3 9.7-2.7 0.6-16.7-0.5-2.1 2.9 0.1 6.1 1.4 5.4 5.7 5.6 6.9 1.7 3.3 1.8 2.9 3.6 0.5 4.4-2.7 3.4-2.2 3.8-2.6 2.5-6.7 2.1-13.1 7.7-7.4 11.6-8.7 8.3-5.6 2.2-5.7 0.7-5.5-3.3-5-1.7z" id="PLZP" name="West Pomeranian">
  </path>
  <path d="M866.8 433.2l0.7 0.6 1 1.5 0.3 1.9-0.8 2.7 2.1 1.3 6.5 1.7 1.4-0.5 1.2 1.2 5.6 2.1 1.9 0.2 0 0.9-0.6 1.4 0.2 0.3 1.3-0.6 1.2 0.6 0.8 0.8 0.8 0.2 1.3-1.6 0.4 0.7 0.9 0.8 0.6 0.7 1.5-1.5 0.3 1.1-0.2 1.8-0.4 0.5 2.5 5 1.8 0.6 4.3-0.1 1.7 1 0.6 1.2 0.5 1.2 0.5 0.9 0.9 0.4 1.1 0.7 0.3 1.8 0.1 1.7 0.8 1.8 1.3 5.6 1 2.5-1.4 1-1.2 1.9-1.7 4.1-0.6 2.7-0.1 4.8-0.6 1.6 0.4 0.2 0.1 0 0.1 0.2 0 0.6-1 0.7-0.4 3.1-1 1.3 1.4 2.6 1.7 2.3-1 3.4-1.8 1.7-1.9 1.2-1.5 1.8-0.4 1-0.4 1.6-0.5 3.4 0.3 0.7 0.7 1.1 0.2 0.9-0.9 0.4-0.3 0.4 0.3 0.9 0.5 1 0.5 0.7-1.2 1.4-0.6 0.4-0.8 0.1 0 1.1 1.1 1.1 0.1 1.4-0.5 4 0.3 2.1 0.8 2 2 3.4-0.6 0.1-0.6-0.1 1.1 2.3 1.4 0.6 1.3 0.7 0.3 2 0.2 0.9 0.6 2 1.4 1 0.6 0.2 1.1 0.4 0.1 0.1 1.2 0.8-1.5 2.9 0.1 0.1 0 0.6 0.1 0.2 0.1 0.2 0.8 1.2 2.8 4.1 0.7 1.7-1 0.5-0.2 0.3-0.2 0.3-0.1 0.2-0.2 0.2 0 0.4-0.1 1.1 0.2 0.6 0.1 0.3 0.2 0.7 0 0.1 0.1 0.3-0.5 0.2-0.1 0-0.6 0.2-0.5 0.2 0 0.1-1.6 1.6-1.2 2.2-0.5 1.9 0.6 3.1 1.4 0.7 0.1 0 1.6 0.1 1.6 1 0.4 0.8 3.1 7 0.2 0.4 1 2.2 0.3 0.6 0.5 0.6 1.6 1.9 1.5 1 0.9 0.6 1.8 1.1 0.4 0.2 2.2 2.4 0.2 0.1 0.1 0.2 0.4 0.4 0.4 0.3 1 1.1 0.4 0.8 0.6 0.9-0.5 0.3-1 0.5-0.1 0.2-0.2 1.1 0.2 0.5 0.3 0.7 0.1 0.2 0.7 1.5 2.4 3.7 0.8 1.9 1 6.1 0 0.9-0.4 1.1 0.7 0.6 1.2 0.4 1.1 0.8 1 1.5 0.2 1.2 0.1 1.3 0.5 1.9 1.4 2.3 6.1 5.7 0.5 0.2 1.1 0.6 2.8 1.6 1.4 0.8 0.2 0.1 0.8 0.4 0.1 0.1 0.7 0.3 0.1 0.2 1 1.5 0 0.1-1.1 2.5-2.7 0.6-1.7 0-0.4 0-0.1 0-0.8 0-1.9 0.9-2.4-1.4-2.5 0.3-1 0.8-1.1 0.8-1.1 2.5 0.1 1.7 0 0.4 0.1 0.6 0.6 0.8 0.7 1.1 2.2 1 2 0.2 0.5 0.1 0 0.9-0.1 0.1-0.1 0.2-0.4 1-0.1 0-0.2 0.7-0.3 0.5 0.4 0.6 0.1 0.2 0.1 0.2 0.7 1.2 2.1 1.3 0.1 0.1 0.1 0 0.2 0.1 1.8 0.5 0.6 0.1-0.5 3.3 0.5 2.2 0 0.3 0.1 0.2 0.1 0.3 0.2 0.6 0.2 0.5 0.1 0.3 1.5 3.5 0.3 0.7-1.3 2.3-0.8 1.4 0.5 3.6 0.4 3.2 0.7 1.8 0.4 0.4-0.1 0.4-1.1 1.6-1.7 1.8-0.2 0.1-5.7 3-0.2 1.7 0.1 2.8-0.1 1.8-0.5 1.6-1.5 3.5-0.4 1.1-4.8 2-16.5 0.2-2.7 0.9-0.4 0.1-1.6 0.8-1.2 1.2-1 2.1-1.1 3.8-0.1 0-9.1-5.4-2.9-4.4-5.7-3.6-6.7-0.8-5.2 0.5-2.4 1.1-7.4 8.5-5.9 4.7-6.9 1.5-20.4-0.7-12.4-3.5-0.9-2.1 3.1-0.8 1.4-0.8-2.4-1.7-12.6 2.5-3.2-1.5-2.4-3.6-0.6-3.5 1.5-3 2.2-3 2.9-0.9 2.8 0.3 2.5-1.4-1.1-3.5-2.1-4-0.2-2 0.1-1.9-0.9-1.3-14.3-7.7-21.1-5.4-1.7-3 4.1-7.8 1.3-3.6-2.9-2.6-3.2-2-3.5-1.3-3.6 0.2-6 4.2-6.8-0.4-11.9-8.1-0.5-3.1-2.3-8.8-0.2-1.4-0.2-0.5-0.4-0.2-0.4-0.4-0.2-0.8 0.1-0.9 0.2-0.5 0.3-0.2 0.1-0.5 0.6-6.2-0.3-2.8-1.6-1.3 0-1 0.6-0.1 0.8-0.4 0.7-0.6 0.4-0.8-0.4-2-2.2-5.5-0.7-4.7-0.8-2.6-0.2-1.1 0.1-1.7 0.3-1.2 0.8-2.1 1.7-9 1.1-2.4 0.8-0.7 1-0.1-0.2-3.1 1.1-4.4 0.6-4.1-3.6-4.4 0.2-3.5 2.1-1.8 2.2-3 0.1-6-2.8-0.3 0-1 1.4-1.6-0.4-1.8-1.6-2.5-0.2-2.1 0.1-1.7-0.3-1.2-1.4-1-0.9-0.1-2.2 1-1.6 0.2-4.7-1-2.5-1.2-1.4-1.6-1.1-1.9-0.1-1.5 0.9-3.8 3.3-0.9 3.2 1.4 6.6 1 6.5-2.3 2.2-2.1 0.6-3.3-4.5-7.1 3.5-4.9 5-3.1-3.2-4.8-2.2-5.5-0.4-3.9-1.8-3.8-1.4-4.1-0.6-3.8 6.4-4.8 6.9-2 13.2 0.1 12.4-2.5 4.6 0.9 3.2-1 8.6-6.5 3.5-0.4 10 0.9 5-4.1 0.5-2.2 0.6-1.9 1.5-1.6 1.6-1.1 3.7 0.9 10.7 5.5 3.5-1.4 3-3.8 2.6-6.1 8.6-12.7 2.9-5.5 1.2-0.6 1.7 0.5 2.9 1.7 1.6 0 0.7-0.6z" id="PLLU" name="Lublin">
  </path>
  <path d="M556.7 106.4l-0.4 0.2-1-0.1 0.2 0.7 0.2 1.7 0.2 0.7-1.5 0.3-0.7 1.5-0.4 1.7-0.8 0.9-1.3 0.2-1.3 0.5-5.8 4.3-3.6 0.5-1.5 0.6-7.1 4.5-1.1 0.3-1.2 0.7-2.3 2.2-2.3 3.7-0.5 0.6-0.7 0.9-1.6 4.3-1.2 1.2 0.1-2.3 0.3-1.9 0.7-1.4 0.8-0.8 0-1.1-2.1 0.2-8.1-1-2.2 2.5-0.6 5.3 2 6 1.9 3.3 0.9 3.8-1 2.9-1.4 2.5-4 4-1.4 2.2 0.2 3 1.7 6.6 3 5.1 4.4 2.6 4.6 0.6 2.4 3.2-1.8 6.1 3.3 1.6 8.9-0.8 4.6 1.3-0.4 2.4 0 2.6-1.1 2.1-1.6 1.6-1.5 4.4-1 1.7-0.2 2.5-5.1 2.3-7.4-0.5-3.8 2.4-3.2 3.5-13.4 25-4.9 2.2-10.3 0.6-5-2-2.8-1.8-6-6.2-1.4-0.9-1.3-1.5-1.7-1-7.4-1.1-5.3 1.9-3.4 2.2-7.7-4.6-16.3-2.7-3-2.8-2.7-3.5-3.1-0.2-15.4 2.3-11.5-2.3-2.5 1.9-3.7 6.8-6.2 2.3-2.9 2.8-0.5 2-0.4 2.1 0 3.3-5.7 2.3-12.6-3.3-3.3 0.3-2.6 3.5-2.2 4.9-2.7 9.6-2.5 1.5-4.1-4.8-4.8-2.7-18.5-0.8-5.3-3.2-3.8-6.6-4.3-5.4-1.6-16.6 3.8-3.9 2.7-4.8-1-3.3-1.6-2.6-1.8-0.9-0.1-3 4.5-2.1 5 0.6-1.7-3.6-2.1-3-2.5-2.3-3.4-7-2.2-2.6-3.9-2.8 0-8.5-0.7-8.5-5.8-17.6 12.6-3.2 1.5-2.2-0.4-3.8-1.7-2.4-1-2.3 0.7-2.8 2.4-2.4 1-4.2-0.7-7.5-2.8-5.7-7.5-10.8-6.3-12.8-0.2-0.3 6.8-2.7 3.8-0.7 3.5-1.2 8.7-9.6 27.3-12.9 34.4-6.5 15.4-5.3 24.2-2.2 14.9 0 2.1 0.7 3.2 2.9 1.3 0.7 1.9 0.4 31 18.6 5.6 7.3 0.9 1.8 1 2.4 0 2.1-1.6 0.8-0.4-0.5-0.4-1.2-0.6-1.1-1.6-1.2-1.1-2.9-1.5-1.9-4.3-7.4-0.9-0.4-3.2-0.6-0.8-0.4-0.8-1.4-2.6-0.9-5.4-3.8-5.3-2.6-0.9-1.2-2.9-2.3-0.8-0.3-1.1 0.5-0.6 0.8-1.3 4.5-0.2 1 0 2.3 0.5 0.6 2.2 1 0.5 0.6 1.1 1.9 1.3 2.9-0.1 1.2-0.3 1 0 1 1.1 1.2-0.6 3 1.1 1.3 1.7-0.3 1.5-2-0.5 2.6 0.7 2.1 1.1 1.7 2.3 7.2 0.7 1.5-0.3 3.6 0 6.1 0.6 5.9 1.3 2.6 1.4 0.5 2.8 2.1 1.4 0.5 1.2 0.1 1.6 0.5 1.2 0.8 0.6 1.4 1.5 2.2 15.3 4.9 3.4 0.3 2.8-1.6 0.8 0.8 1.1 0.6 2.5 0.7 34-5.1 7.5-3.6 3.6-0.8 2.9-1.4 5.5-5.8 1.6-0.7 1.9 1.6 4.5 1.5 7.1 0.4z" id="PLPM" name="Pomeranian">
  </path>
  <path d="M716.8 259.1l1.2 5.3 2.1 5 1.4 5.9 2.3 17.5 5.1 12.7 3.3 6.5 4.8 2.6 5 0.7 4.2 3.3-1.5 2.7 0.4 3.8 2.3 4.2 3.5 1.9 2.2 2.3 1.3 3.7 1.3 5.5 2.4 4.4 6.4 3.4 6.9-1 4.5-4.9 4.4 3.3-1.4 8.3 2.3 3.2 2.8 2 5.1-2.6 5.3-1.5 1.4 7.1 0.6 7.8 1.1 5.3 0.2 5.5-0.2 3.3 5 5.4 1.9 2.6 2 1.7 0.7 0.9 0.2 1.5-0.3 1.2-0.4 1.2-0.1 1.3 0.3 1.9 0.5 1.3 0.7 0.7 1.3 0.2 0.2 0.7-0.5 4.9 0.6 1.6 1.5 2.2 1.9 1.4 1.5-0.7 1.1 1.8 2.2 0.5 4.8-0.2 14.1 2.9 7.1-1 2.7 0.9 2.1 2 0.8 3.4 1.9-1.1 1.7 1 2.5 3.1-0.4 0.8-0.5 1.6-0.2 0.7 1.5 0.9 1.4-0.5 1.4-0.9-2.9 5.5-8.6 12.7-2.6 6.1-3 3.8-3.5 1.4-10.7-5.5-3.7-0.9-1.6 1.1-1.5 1.6-0.6 1.9-0.5 2.2-5 4.1-10-0.9-3.5 0.4-8.6 6.5-3.2 1-4.6-0.9-12.4 2.5-13.2-0.1-6.9 2-6.4 4.8 0.6 3.8 1.4 4.1 1.8 3.8 0.4 3.9 2.2 5.5 3.2 4.8-5 3.1-3.5 4.9 4.5 7.1-0.6 3.3-2.2 2.1-6.5 2.3-6.6-1-3.2-1.4-3.3 0.9-0.9 3.8 0.1 1.5 1.1 1.9 1.4 1.6 2.5 1.2 4.7 1 1.6-0.2 2.2-1 0.9 0.1 1.4 1 0.3 1.2-0.1 1.7 0.2 2.1 1.6 2.5 0.4 1.8-1.4 1.6 0 1 2.8 0.3-0.1 6-2.2 3-2.1 1.8-0.2 3.5 3.6 4.4-0.6 4.1-1.1 4.4 0.2 3.1-1 0.1-0.8 0.7-1.1 2.4-1.7 9-0.8 2.1-0.3 1.2-0.1 1.7 0.2 1.1 0.8 2.6 0.7 4.7 2.2 5.5-29 6.1-15-4.7-7-0.6-6.2-4.1-0.6-2.2-0.4-2.4-2.7-3.1-0.7-4.8-2.8-1-2.8 2.7-2.7 3.8-3 1.7-12.6 2-11-2.3-2.3-1.8-1.9-3-2.1-2.4-15-9.2-2.7-6.9-5-1.8-0.3-4.2 1.2-4 5.8-5.4 1.5-4 0-4.7-1.2-1.3-3.3-1.7-0.7-2.3-0.3-4.7-0.9-4.5-2.7-6.4 2.3-8.3 7.1 0 5.4 3 6.6 0.9 1.2-2.4 0.2-3.5-1.4-3.7-4.8-5.1-0.9-4.2 0.5-1.9 0.9-1.3 0.8-1.7-0.6-2.4-5.3-7.2-6.6-5.1-6-2.8-9.6 1.2-3.3-1.1-0.8-2.4 0.2-2.8-2.1-3.2-2.5-2.8-0.7-3.1 3-1.8 1-7.4-1.3-1.6-3.5-2.4-6.3-2.5-1.4 0.4-1.3-0.7-1.8-4.2-0.3-5.1-1.2-3.8-2.5-1.8-3.2-0.9-2.9-1.5-2.1-3.8-2.5-3.2-3.4 0.3-2.9 3-18.8 3.9-8.4-6.8-4.7-2.2-9.5-2-8.8-6 0.6-2.6 0.4-2.5 6.7-11.1-0.4-2.7-1.8-1.9 0.4-5.8 2.5-4.9 6.1-17.8 3.9-1-0.1-5-2.6-6.3-1.6-2.8-1-3.2 0.8-3 1.8-2 0.5-5.6-1.4-6.1 4.4 0.5 3.8-3.2 1.7-2.5 1.9-1.9 1.8 0.8 1.7 1.2 1.7 0.2 0.8-2.6 0.5-2.9 0.3-3-0.7-4.5-0.1-2.9-0.6-2.9 4.7-2.2 4.3-3.5 3.2-0.8 2.6-2.2 2.3-4.6 3.6-1.2 1.6 0.4 1.4 0.9 0.6 1.4 0.8 0.9 28.6 4.5 6.9-1.3 2.7-1.4 2.4-2.7 1.5-5.1 2.8-2.2 3.5 0.3 3.3-1 12.7-7.3 3-3.6 3.3-2.7 6.5 0.1 5.8-1.2 6.6-3.8 8.7 0 8.1-2.6 6.9-8.2 8.1 0.7 4.1-0.6 3.7-2.6 2.6-5.2 2.2-1.2 11-0.9z" id="PLMZ" name="Masovian">
  </path>
  <path d="M556 649.3l-9.9-5-9.1 0.5-3-0.9-8.5-13.6-5.5-5-6.1-1.1-3.1 2.7-7.2 0-5.9-1.2-11.9-6.4-2.8-2.9-3.2-0.6-2.8 2-3 1.4-12.8 0.4-4.6 2.3-6.8-5.6-2.1-4.1-2.4-3-1.1 0.7-0.8 1.5-1.2 1-6.4 0.2-20.3-5.3-2.7-2.1-2-3.7-0.6-6.7-0.9-4-5.2-4.7-1.7-4-0.3-4.7 1.5-3.2 6.6-1.5 2.3-3.6 1.5-4.6 4.5-1.3 5 2.4 4.3-3.1 2.5-6.9-0.1-7.8-0.9-8 0.4-9.6 2.4-9 4.2-10.1 2.3-3.2 5.2-2.4 13.2 1.4 1-1.1 4.4-7.7 0.3-4.7-1.7-4.7-1-5.2 0.6-5 1.3-4.5 2.9-0.3 3.1 0.4 6.1-1.4 4.6-5.5 0.8-9.2 0.9-4.2 9.1-3.8 5.6-5.4-0.2-1.5-1.4-0.4-1.7-3.7-0.2-4.8 0.9-1.1 0.7-1.4 1.5-0.9 11.2-0.2 3.5-1 0.8-1.7 1.1-1.7 1.8-0.3 1.7 0.1 8.8 6 9.5 2 4.7 2.2 8.4 6.8 18.8-3.9 2.9-3 3.4-0.3 2.5 3.2 2.1 3.8 2.9 1.5 3.2 0.9 2.5 1.8 1.2 3.8 0.3 5.1 1.8 4.2 1.3 0.7 1.4-0.4 6.3 2.5 3.5 2.4 1.3 1.6-1 7.4-3 1.8 0.7 3.1 2.5 2.8 2.1 3.2-0.2 2.8 0.8 2.4 3.3 1.1 9.6-1.2 6 2.8 6.6 5.1 5.3 7.2 0.6 2.4-0.8 1.7-0.9 1.3-0.5 1.9 0.9 4.2 4.8 5.1 1.4 3.7-0.2 3.5-1.2 2.4-6.6-0.9-5.4-3-7.1 0-2.3 8.3 2.7 6.4 0.9 4.5 0.3 4.7 0.7 2.3 3.3 1.7 1.2 1.3 0 4.7-1.5 4-5.8 5.4-1.2 4 0.3 4.2-2.6 2-3.3 8.2-3 1.4-3 0.5-2.9 1.4-6.3 6-2.9 0.8-10.1-1.4-2.8 1.1-2.2 2.9-2.3 8.7 4.2 6.3 2.8 2.3 0.8 4.8-0.7 4.7-2 2.4-12-8.8-3.2 0.6-1.2 4.7-0.1 4.6 0.4 4.5-1.5 4.3-3.2 2.1-2.6 2.5-2.1 3.5z" id="PLLD" name="Łódź">
  </path>
  <path d="M499.5 242l7.9 15.3 2.2 6.6 2.8 5.2 1.4 2.1 2.1 0.9 1.7 0 7 2.3 9.7 5.9 10.3 2.7 5.1 3.6 4.7 11.9 1.3 13.8-4.3 3.5-4.7 2.2 0.6 2.9 0.1 2.9 0.7 4.5-0.3 3-0.5 2.9-0.8 2.6-1.7-0.2-1.7-1.2-1.8-0.8-1.9 1.9-1.7 2.5-3.8 3.2-4.4-0.5 1.4 6.1-0.5 5.6-1.8 2-0.8 3 1 3.2 1.6 2.8 2.6 6.3 0.1 5-3.9 1-6.1 17.8-2.5 4.9-0.4 5.8 1.8 1.9 0.4 2.7-6.7 11.1-0.4 2.5-0.6 2.6-1.7-0.1-1.8 0.3-1.1 1.7-0.8 1.7-3.5 1-11.2 0.2-1.5 0.9-0.7 1.4-0.9 1.1-8.6-6.6-3.2 0.5-9.5 4-3.3 0.3-2.5-5.7-15-12.3-2.7-3.2-3.2-1.5-1.7 0.2-1.7 0.7-0.8 1.7-1.4 0.8-2.2-0.7-1.7-2.6-1.1-2.4-0.7-2.7-1.3-0.9-1.8-0.5-5.3 6.2-3.1 1.4-9.2-2.4-2.9-2.8-2.6-3.3-3.1-1.2-3.3-0.3-3.3-1.6-9.3-8.6-6.8-3.7-6.3-0.3-5.8-2-1-0.6-0.7-0.9-0.4-2.5-0.8-2-2.8-2.4-1.6 1.5-3.7 1.2-3.7-0.7-1.8-2.9-1.4-3.5-3.3-3.2 0.6-3.8 1.6-1.2 1.6 0.1 1.5-0.5 1-2.1 2-10.6-4.5-9.8-6.8-5.2-7.4-2.7 4.1-9.4 1.2-9.4-2.8-5.4-0.8-6.4 8.3-7-4.3-9.9-7.8-6-1-4.6 6.5-8.6 2.6-5.6 2.5-1.5 2.7-9.6 2.2-4.9 2.6-3.5 3.3-0.3 12.6 3.3 5.7-2.3 0-3.3 0.4-2.1 0.5-2 2.9-2.8 6.2-2.3 3.7-6.8 2.5-1.9 11.5 2.3 15.4-2.3 3.1 0.2 2.7 3.5 3 2.8 16.3 2.7 7.7 4.6 3.4-2.2 5.3-1.9 7.4 1.1 1.7 1 1.3 1.5 1.4 0.9 6 6.2 2.8 1.8 5 2 10.3-0.6 4.9-2.2z" id="PLKP" name="Kuyavian-Pomeranian">
  </path>
  <path d="M371.3 599.5l-1.2-7.2-1.1-14.9 2.6-6.1-3.3-2.6-3.4-1-5.6 1.1-5.3-1.2-2.2-5.4-0.5-6.3 1.3-3.1 2.2-1.4 1.2-3.6 0.9-4.2-9-5.9-10-2.7-10.7-0.1-3.8 0.8-3.4 7.8-18.8 3.3-10.4-3.7-5-5.5-8.8-4.9-3.9-7-0.3-4.7-1.6-3.7-10.2-5.6-3.7-1-7.9 1.6-2.9-11-5.9-6.5-6.6 4.5-4.2-1.3-3.9-2.7-1.3-3.9 0.4-5.1 0.8-2.8-0.1-3-1.5-0.9-1.6 0.6-3.3 0-3.3-3.3-2.1-3.8-1.6-4.6-5-2.7-2.5-2.5-2.1-3.2-0.7-4.7 0.1-4.9 1-4.4 0.2-2.3 0.5-2.1 2.9-8.7-0.2-9.2-1.8-4.4-3.8-6.8 1.9-1.4 2.4 0 0-4.4-0.7-5.5-1.1-5.2-3.2-8.8-0.3-8.3 0.4-3.2 0.1-3.4 0.6-1.4 1.4 0.2 8.6-2.7 1.7-1.2 0.9-2.3-2-7.4-2.8-2.6 8.9-11.4-0.3-9.6 1.8-8.7 5 1.7 5.5 3.3 5.7-0.7 5.6-2.2 8.7-8.3 7.4-11.6 13.1-7.7 6.7-2.1 2.6-2.5 2.2-3.8 2.7-3.4-0.5-4.4-2.9-3.6-3.3-1.8-6.9-1.7-5.7-5.6-1.4-5.4-0.1-6.1 2.1-2.9 16.7 0.5 2.7-0.6 2.3-9.7 1.8-5 2.4-4.2 3.2-1.4 3.5-0.1 3.4 1.1 4.3 5.4 3.8 6.6 5.3 3.2 18.5 0.8 4.8 2.7 4.1 4.8-2.6 5.6-6.5 8.6 1 4.6 7.8 6 4.3 9.9-8.3 7 0.8 6.4 2.8 5.4-1.2 9.4-4.1 9.4 7.4 2.7 6.8 5.2 4.5 9.8-2 10.6-1 2.1-1.5 0.5-1.6-0.1-1.6 1.2-0.6 3.8 3.3 3.2 1.4 3.5 1.8 2.9 3.7 0.7 3.7-1.2 1.6-1.5 2.8 2.4 0.8 2 0.4 2.5 0.7 0.9 1 0.6 5.8 2 6.3 0.3 6.8 3.7 9.3 8.6 3.3 1.6 3.3 0.3 3.1 1.2 2.6 3.3 2.9 2.8 9.2 2.4 3.1-1.4 5.3-6.2 1.8 0.5 1.3 0.9 0.7 2.7 1.1 2.4 1.7 2.6 2.2 0.7 1.4-0.8 0.8-1.7 1.7-0.7 1.7-0.2 3.2 1.5 2.7 3.2 15 12.3 2.5 5.7 3.3-0.3 9.5-4 3.2-0.5 8.6 6.6 0.2 4.8 1.7 3.7 1.4 0.4 0.2 1.5-5.6 5.4-9.1 3.8-0.9 4.2-0.8 9.2-4.6 5.5-6.1 1.4-3.1-0.4-2.9 0.3-1.3 4.5-0.6 5 1 5.2 1.7 4.7-0.3 4.7-4.4 7.7-1 1.1-13.2-1.4-5.2 2.4-2.3 3.2-4.2 10.1-2.4 9-0.4 9.6 0.9 8 0.1 7.8-2.5 6.9-4.3 3.1-5-2.4-4.5 1.3-1.5 4.6-2.3 3.6-6.6 1.5-1.5 3.2 0.3 4.7 1.7 4 5.2 4.7 0.9 4 0.6 6.7-10.4 6.2-10.7 4-5.8-0.3-4.8-3.9-0.5-3.5-1.2-3.1-3-1.6-3.1 0.2z" id="PLWP" name="Greater Poland">
  </path>
  <path d="M574.7 695.1l-2.6-1-6.2-0.9-3.1-1.7 1.8-4 6.2-5.2 3.7-0.6-4.3-5.3-2.6-5.6-3.1-2.4-6.8-2-2.5-2.9 3.4-6.5 6.2-1 0.4-1.2 0-1.7-0.3-1.6-1.2-0.7-7.7-1.5 2.1-3.5 2.6-2.5 3.2-2.1 1.5-4.3-0.4-4.5 0.1-4.6 1.2-4.7 3.2-0.6 12 8.8 2-2.4 0.7-4.7-0.8-4.8-2.8-2.3-4.2-6.3 2.3-8.7 2.2-2.9 2.8-1.1 10.1 1.4 2.9-0.8 6.3-6 2.9-1.4 3-0.5 3-1.4 3.3-8.2 2.6-2 5 1.8 2.7 6.9 15 9.2 2.1 2.4 1.9 3 2.3 1.8 11 2.3 12.6-2 3-1.7 2.7-3.8 2.8-2.7 2.8 1 0.7 4.8 2.7 3.1 0.4 2.4 0.6 2.2 6.2 4.1 7 0.6 15 4.7 29-6.1 0.4 2-0.4 0.8-0.7 0.6-0.8 0.4-0.6 0.1 0 1 1.6 1.3 0.3 2.8-0.6 6.2-0.1 0.5-0.3 0.2-0.2 0.5-0.1 0.9 0.2 0.8 0.4 0.4 0.4 0.2 0.2 0.5 0.2 1.4 2.3 8.8 0.5 3.1 0.2 1.9 0.2 5.3-0.8 5.7-0.6 2.2-1.1 2.6-1.4 2.1-1.6 0.9-2.4 0.4-1.6 1.1-2.6 4.4-4.3 5.1-0.6 2.2-0.5 2.8-1.1 2.2-2.8 3.4-1.7 1.4-5.8 1.5-8.7 3.9 0.4 0.6 0.9 2.3-1.7 1.8-2.4 1.4-2.3 0.5-1.7-0.8-5.5 4.9-0.4 0.1-1.3-0.1-0.3 0.3 0 0.6 0.1 0.7-0.1 0.4-1 0.8-0.6-0.1-0.8-0.7-0.5 2-1.1 1-1.1 0.5-0.4 0.8-0.2 1.2-0.3 0.3-0.5 0-0.6 0.5-1.6 2.2 0 0.2-1.6 0.4-0.9-0.8-0.8-1-1.3-0.6-0.9 0.2-3.8 1.8-0.8 0.8-0.9 0.9-1 0.9-1.4 0.4-6.7 0.2-0.9 0.3-0.8 0.7-0.9 1.2-0.8 0.5-2.5 0.2-1.3 0.8-1.4-0.9-1.2 0.8-1.2 1.3-1.5 0.7-3.5-3.3-0.5 0.8-0.6 2.5-1.9 1.9-0.3 0.2-0.8 0-0.4 0.3-0.3 0.7-0.1 1.5-0.3 0.7-1.3 1.3-2.9 1.4-1.1 1.8-0.4 1.5-2.7 2.9-11.9-0.4-6.7-4-1.7-3.6-4.1-5.8-1.6-3.3-1.5-6.6-4.2-8.2-6.9-4.7-7.7-2.4-3-3.2-3.6-1.9-8.5 0z" id="PLSK" name="Świętokrzyskie">
  </path>
 </g>
 <g id="points">
  <circle class="49.28622871749185|14.62488464379541" cx="90.9" cy="863.8" id="0">
  </circle>
  <circle class="51.62395317585258|19.634501340465032" cx="545.5" cy="530.6" id="1">
  </circle>
  <circle class="54.54610874880348|23.64219469780073" cx="909.1" cy="88.9" id="2">
  </circle>
 </g>
 <g id="label_points">
  <circle class="Silesian" cx="488.9" cy="685.8" id="PLSL">
  </circle>
  <circle class="Lesser Poland" cx="582.7" cy="787.8" id="PLMA">
  </circle>
  <circle class="Subcarpathian" cx="760.4" cy="762.3" id="PLPK">
  </circle>
  <circle class="Lower Silesian" cx="258.6" cy="600.8" id="PLDS">
  </circle>
  <circle class="Opole" cx="385.8" cy="668.1" id="PLOP">
  </circle>
  <circle class="Podlachian" cx="847.7" cy="295.6" id="PLPD">
  </circle>
  <circle class="Warmian-Masurian" cx="645.2" cy="198.5" id="PLWN">
  </circle>
  <circle class="Lubusz" cx="154.7" cy="445.1" id="PLLB">
  </circle>
  <circle class="West Pomeranian" cx="178.7" cy="237.1" id="PLZP">
  </circle>
  <circle class="Lublin" cx="839.5" cy="580.9" id="PLLU">
  </circle>
  <circle class="Pomeranian" cx="400.5" cy="133.9" id="PLPM">
  </circle>
  <circle class="Masovian" cx="679.2" cy="412.7" id="PLMZ">
  </circle>
  <circle class="Łódź" cx="525" cy="531.8" id="PLLD">
  </circle>
  <circle class="Kuyavian-Pomeranian" cx="442.6" cy="320.5" id="PLKP">
  </circle>
  <circle class="Greater Poland" cx="289.9" cy="414.9" id="PLWP">
  </circle>
  <circle class="Świętokrzyskie" cx="650.2" cy="663.8" id="PLSK">
  </circle>
 </g>
</svg>